<svg width="100" height="100" viewBox="0 0 100 100" fill="none" xmlns="http://www.w3.org/2000/svg">
  <path d="M0 50C0 22.3858 22.3858 0 50 0C77.6142 0 100 22.3858 100 50C100 77.6142 77.6142 100 50 100C22.3858 100 0 77.6142 0 50Z" fill="black"/>
  <path d="M52.5 53.2083V74.875" stroke="white" stroke-width="4" stroke-linecap="round" stroke-linejoin="round"/>
  <path d="M30.8334 58.3514C28.8212 56.2956 27.3032 53.8088 26.3945 51.0794C25.4858 48.35 25.2101 45.4496 25.5883 42.5979C25.9665 39.7462 26.9888 37.0179 28.5776 34.6198C30.1664 32.2216 32.2801 30.2165 34.7586 28.7563C37.2372 27.296 40.0155 26.419 42.8832 26.1915C45.7509 25.9641 48.6327 26.3923 51.3104 27.4436C53.9881 28.4949 56.3915 30.1417 58.3385 32.2595C60.2854 34.3772 61.7249 36.9102 62.5479 39.6666H67.3959C70.0108 39.6663 72.5565 40.5071 74.6569 42.0647C76.7573 43.6223 78.301 45.8142 79.06 48.3165C79.8191 50.8189 79.7531 53.499 78.872 55.961C77.9908 58.423 76.3412 60.5363 74.1667 61.9887" stroke="white" stroke-width="4" stroke-linecap="round" stroke-linejoin="round"/>
  <path d="M41.6667 64.0416L52.5 53.2083L63.3334 64.0416" stroke="white" stroke-width="4" stroke-linecap="round" stroke-linejoin="round"/>
  </svg>
  