<svg width="120" height="120" viewBox="0 0 120 120" fill="none" xmlns="http://www.w3.org/2000/svg">
  <path d="M5 60C5 90.3757 29.6243 115 60 115C90.3757 115 115 90.3757 115 60C115 29.6243 90.3757 5 60 5C29.6243 5 5 29.6243 5 60Z" fill="black" stroke="#FACC15" stroke-width="10"/>
  <path d="M62.5 63.2083V84.875" stroke="white" stroke-width="4" stroke-linecap="round" stroke-linejoin="round"/>
  <path d="M40.8334 68.3514C38.8212 66.2956 37.3032 63.8088 36.3945 61.0794C35.4858 58.35 35.2101 55.4496 35.5883 52.5979C35.9665 49.7462 36.9888 47.0179 38.5776 44.6198C40.1664 42.2216 42.2801 40.2165 44.7586 38.7563C47.2372 37.296 50.0155 36.419 52.8832 36.1915C55.7509 35.9641 58.6327 36.3923 61.3104 37.4436C63.9881 38.4949 66.3915 40.1417 68.3385 42.2595C70.2854 44.3772 71.7249 46.9102 72.5479 49.6666H77.3959C80.0108 49.6663 82.5565 50.5071 84.6569 52.0647C86.7573 53.6223 88.301 55.8142 89.06 58.3165C89.8191 60.8189 89.7531 63.499 88.872 65.961C87.9908 68.423 86.3412 70.5363 84.1667 71.9887" stroke="white" stroke-width="4" stroke-linecap="round" stroke-linejoin="round"/>
  <path d="M51.6667 74.0416L62.5 63.2083L73.3334 74.0416" stroke="white" stroke-width="4" stroke-linecap="round" stroke-linejoin="round"/>
  </svg>
  