<svg width="588" height="114" viewBox="0 0 588 114" fill="none" xmlns="http://www.w3.org/2000/svg">
  <path d="M0 50C0 22.3858 22.3858 0 50 0V0C77.6142 0 100 22.3858 100 50V50C100 77.6142 77.6142 100 50 100V100C22.3858 100 0 77.6142 0 50V50Z" fill="black"/>
  <path d="M52.5 53.2083V74.875" stroke="white" stroke-width="4" stroke-linecap="round" stroke-linejoin="round"/>
  <path d="M30.8334 58.3515C28.8212 56.2956 27.3032 53.8088 26.3945 51.0794C25.4858 48.35 25.2101 45.4496 25.5883 42.5979C25.9665 39.7462 26.9888 37.0179 28.5776 34.6198C30.1664 32.2217 32.2801 30.2165 34.7586 28.7563C37.2372 27.2961 40.0155 26.419 42.8832 26.1916C45.7509 25.9641 48.6327 26.3923 51.3104 27.4436C53.9881 28.4949 56.3915 30.1418 58.3385 32.2595C60.2854 34.3772 61.7249 36.9102 62.5479 39.6667H67.3959C70.0108 39.6664 72.5565 40.5071 74.6569 42.0647C76.7573 43.6224 78.301 45.8142 79.06 48.3166C79.8191 50.8189 79.7531 53.499 78.872 55.961C77.9908 58.423 76.3412 60.5363 74.1667 61.9888" stroke="white" stroke-width="4" stroke-linecap="round" stroke-linejoin="round"/>
  <path d="M41.6667 64.0417L52.5 53.2083L63.3334 64.0417" stroke="white" stroke-width="4" stroke-linecap="round" stroke-linejoin="round"/>
  <path d="M141.776 76.152C128.096 76.152 120.176 69.096 119.456 58.008L131.984 57.432C132.776 62.976 135.872 66.072 141.92 66.072C146.744 66.072 149.552 64.344 149.552 60.888C149.552 57.72 147.968 55.92 139.256 54.048C125.72 51.168 120.392 47.496 120.392 38.424C120.392 29.136 127.808 22.728 140.264 22.728C153.44 22.728 160.352 30.072 161.432 40.368L148.976 40.944C148.544 35.976 145.376 32.808 140.12 32.808C135.656 32.808 132.992 34.896 132.992 37.992C132.992 41.52 135.224 43.032 142.712 44.472C157.328 47.208 162.152 52.392 162.152 60.312C162.152 70.104 154.448 76.152 141.776 76.152ZM184.838 75C176.486 75 172.742 71.256 172.742 62.76V45.192H166.334V36.264H172.742V27.192H185.126V36.264H195.278V45.192H185.126V61.176C185.126 64.92 186.71 66.072 189.95 66.072H195.278V75H184.838ZM219.404 75.864C207.164 75.864 199.1 67.872 199.1 55.632C199.1 43.464 207.164 35.4 219.404 35.4C231.644 35.4 239.708 43.464 239.708 55.632C239.708 67.872 231.644 75.864 219.404 75.864ZM219.404 66.72C224.228 66.72 226.964 62.688 226.964 55.632C226.964 48.648 224.228 44.544 219.404 44.544C214.508 44.544 211.844 48.648 211.844 55.632C211.844 62.688 214.508 66.72 219.404 66.72ZM245.9 75V36.264H257.78L258.068 44.184C259.652 38.64 262.532 36.264 267.284 36.264H270.668V46.272H267.212C261.092 46.272 258.284 48.144 258.284 53.76V75H245.9ZM288.58 75.864C280.372 75.864 274.756 71.976 274.756 65.28C274.756 58.44 279.22 54.984 287.716 53.256L299.74 50.808C299.74 46.272 297.652 43.896 293.98 43.896C290.308 43.896 288.292 45.696 287.716 49.008L275.404 48.576C276.916 39.648 283.54 35.4 293.98 35.4C306.076 35.4 312.124 40.944 312.124 51.744V63.984C312.124 66.36 312.916 66.936 314.356 66.936H315.292V75C314.5 75.216 312.556 75.504 310.9 75.504C307.084 75.504 303.124 74.208 302.044 69.024C300.028 73.272 295.564 75.864 288.58 75.864ZM291.748 67.8C296.428 67.8 299.74 64.92 299.74 59.664V58.08L292.18 59.808C289.156 60.456 287.5 61.896 287.5 64.128C287.5 66.432 288.868 67.8 291.748 67.8ZM339.424 86.664C327.4 86.664 322.288 82.2 320.416 75.936L333.088 75C333.808 77.232 335.392 78.456 339.424 78.456C343.888 78.456 346.48 76.296 346.48 71.04V67.584C344.68 71.04 340.288 73.272 335.32 73.272C325.888 73.272 319.264 66 319.264 54.408C319.264 43.248 325.816 35.4 335.248 35.4C341.008 35.4 344.68 38.136 346.768 42.168V36.264H358.936V70.824C358.936 81.624 350.8 86.664 339.424 86.664ZM339.352 64.56C343.744 64.56 346.552 60.816 346.552 54.336C346.624 47.928 343.816 44.04 339.352 44.04C334.744 44.04 332.008 48.144 332.008 54.336C332.008 60.528 334.888 64.56 339.352 64.56ZM385.268 75.864C373.028 75.864 365.108 67.872 365.108 55.632C365.108 43.464 373.028 35.4 385.196 35.4C397.22 35.4 404.78 43.536 404.78 56.568V58.872H377.852C378.068 64.272 381.02 66.864 385.484 66.864C388.652 66.864 390.956 65.64 391.892 62.688L404.276 63.408C402.116 71.472 394.916 75.864 385.268 75.864ZM392.324 51.816C392.036 46.704 389.3 44.184 385.196 44.184C381.092 44.184 378.284 46.992 377.852 51.816H392.324ZM433.151 76.152C419.471 76.152 411.551 69.096 410.831 58.008L423.359 57.432C424.151 62.976 427.247 66.072 433.295 66.072C438.119 66.072 440.927 64.344 440.927 60.888C440.927 57.72 439.343 55.92 430.631 54.048C417.095 51.168 411.767 47.496 411.767 38.424C411.767 29.136 419.183 22.728 431.639 22.728C444.815 22.728 451.727 30.072 452.807 40.368L440.351 40.944C439.919 35.976 436.751 32.808 431.495 32.808C427.031 32.808 424.367 34.896 424.367 37.992C424.367 41.52 426.599 43.032 434.087 44.472C448.703 47.208 453.527 52.392 453.527 60.312C453.527 70.104 445.823 76.152 433.151 76.152ZM464.097 85.8V76.872H469.497C471.873 76.872 472.809 76.296 473.529 74.424L474.177 72.696H470.937L457.473 36.264H470.001L477.993 61.032L485.409 36.264H497.937L483.321 78.24C481.449 83.712 478.353 85.8 472.233 85.8H464.097ZM503.736 75V36.264H514.824L515.112 42.528C517.2 37.344 521.376 35.4 526.416 35.4C534.624 35.4 539.664 40.872 539.664 50.088V75H527.28V54.336C527.28 48.432 526.272 45.048 522.096 45.048C518.064 45.048 516.12 48.432 516.12 54.336V75H503.736ZM566.115 75.864C553.875 75.864 545.811 67.872 545.811 55.632C545.811 43.464 553.875 35.4 566.115 35.4C576.843 35.4 584.763 41.304 585.843 51.096L573.099 51.672C572.451 46.992 569.859 44.616 566.115 44.616C561.219 44.616 558.555 48.648 558.555 55.632C558.555 62.688 561.219 66.72 566.115 66.72C569.931 66.72 572.595 64.416 573.099 59.304L585.843 59.736C584.907 69.672 577.131 75.864 566.115 75.864Z" fill="black"/>
  <path d="M508.176 105V82.28H516.272C523.76 82.28 527.952 86.376 527.952 93.672C527.952 100.936 523.824 105 516.464 105H508.176ZM516.272 100.456C520.368 100.456 522.224 98.28 522.224 93.64C522.224 89 520.368 86.824 516.272 86.824H513.744V100.456H516.272ZM539.332 105.384C533.892 105.384 530.308 101.832 530.308 96.392C530.308 90.984 533.892 87.4 539.332 87.4C544.772 87.4 548.356 90.984 548.356 96.392C548.356 101.832 544.772 105.384 539.332 105.384ZM539.332 101.32C541.476 101.32 542.692 99.528 542.692 96.392C542.692 93.288 541.476 91.464 539.332 91.464C537.156 91.464 535.972 93.288 535.972 96.392C535.972 99.528 537.156 101.32 539.332 101.32ZM559.395 105.384C553.955 105.384 550.371 101.832 550.371 96.392C550.371 90.984 553.955 87.4 559.395 87.4C564.163 87.4 567.683 90.024 568.163 94.376L562.499 94.632C562.211 92.552 561.059 91.496 559.395 91.496C557.219 91.496 556.035 93.288 556.035 96.392C556.035 99.528 557.219 101.32 559.395 101.32C561.091 101.32 562.275 100.296 562.499 98.024L568.163 98.216C567.747 102.632 564.291 105.384 559.395 105.384ZM578.415 105.384C572.847 105.384 570.127 102.952 569.871 99.592L575.407 99.4C575.695 100.936 576.623 101.704 578.447 101.704C579.951 101.704 580.783 101.224 580.783 100.232C580.783 99.272 580.271 98.792 577.615 98.344C571.983 97.448 570.287 96.104 570.287 93C570.287 89.64 572.911 87.4 578.319 87.4C583.407 87.4 585.967 89.832 586.383 93.448L580.911 93.64C580.719 92.008 579.759 91.08 578.255 91.08C576.815 91.08 575.951 91.752 575.951 92.808C575.951 93.928 576.655 94.376 578.831 94.696C584.431 95.464 586.447 97.064 586.447 100.104C586.447 103.528 583.407 105.384 578.415 105.384Z" fill="#FACC15"/>
  </svg>
  