<svg width="536" height="100" viewBox="0 0 536 100" fill="none" xmlns="http://www.w3.org/2000/svg">
  <path d="M0 50C0 22.3858 22.3858 0 50 0V0C77.6142 0 100 22.3858 100 50V50C100 77.6142 77.6142 100 50 100V100C22.3858 100 0 77.6142 0 50V50Z" fill="white"/>
  <path d="M52.5 53.2083V74.875" stroke="black" stroke-width="4" stroke-linecap="round" stroke-linejoin="round"/>
  <path d="M30.8334 58.3515C28.8212 56.2956 27.3032 53.8088 26.3945 51.0794C25.4858 48.35 25.2101 45.4496 25.5883 42.5979C25.9665 39.7462 26.9888 37.0179 28.5776 34.6198C30.1664 32.2216 32.2801 30.2165 34.7586 28.7563C37.2372 27.296 40.0155 26.419 42.8832 26.1916C45.7509 25.9641 48.6327 26.3923 51.3104 27.4436C53.9881 28.4949 56.3915 30.1418 58.3385 32.2595C60.2854 34.3772 61.7249 36.9102 62.5479 39.6667H67.3959C70.0108 39.6664 72.5565 40.5071 74.6569 42.0647C76.7573 43.6223 78.301 45.8142 79.06 48.3166C79.8191 50.8189 79.7531 53.499 78.872 55.961C77.9908 58.423 76.3412 60.5363 74.1667 61.9887" stroke="black" stroke-width="4" stroke-linecap="round" stroke-linejoin="round"/>
  <path d="M41.6667 64.0417L52.5 53.2083L63.3334 64.0417" stroke="black" stroke-width="4" stroke-linecap="round" stroke-linejoin="round"/>
  <path d="M138.912 74.024C126.752 74.024 119.712 67.752 119.072 57.896L130.208 57.384C130.912 62.312 133.664 65.064 139.04 65.064C143.328 65.064 145.824 63.528 145.824 60.456C145.824 57.64 144.416 56.04 136.672 54.376C124.64 51.816 119.904 48.552 119.904 40.488C119.904 32.232 126.496 26.536 137.568 26.536C149.28 26.536 155.424 33.064 156.384 42.216L145.312 42.728C144.928 38.312 142.112 35.496 137.44 35.496C133.472 35.496 131.104 37.352 131.104 40.104C131.104 43.24 133.088 44.584 139.744 45.864C152.736 48.296 157.024 52.904 157.024 59.944C157.024 68.648 150.176 74.024 138.912 74.024ZM177.19 73C169.766 73 166.438 69.672 166.438 62.12V46.504H160.742V38.568H166.438V30.504H177.446V38.568H186.47V46.504H177.446V60.712C177.446 64.04 178.854 65.064 181.734 65.064H186.47V73H177.19ZM207.915 73.768C197.035 73.768 189.867 66.664 189.867 55.784C189.867 44.968 197.035 37.8 207.915 37.8C218.795 37.8 225.963 44.968 225.963 55.784C225.963 66.664 218.795 73.768 207.915 73.768ZM207.915 65.64C212.203 65.64 214.635 62.056 214.635 55.784C214.635 49.576 212.203 45.928 207.915 45.928C203.562 45.928 201.195 49.576 201.195 55.784C201.195 62.056 203.562 65.64 207.915 65.64ZM231.467 73V38.568H242.027L242.283 45.608C243.691 40.68 246.251 38.568 250.475 38.568H253.483V47.464H250.411C244.971 47.464 242.475 49.128 242.475 54.12V73H231.467ZM269.405 73.768C262.109 73.768 257.117 70.312 257.117 64.36C257.117 58.28 261.085 55.208 268.637 53.672L279.325 51.496C279.325 47.464 277.469 45.352 274.205 45.352C270.941 45.352 269.149 46.952 268.637 49.896L257.693 49.512C259.036 41.576 264.925 37.8 274.205 37.8C284.957 37.8 290.333 42.728 290.333 52.328V63.208C290.333 65.32 291.037 65.832 292.317 65.832H293.149V73C292.444 73.192 290.717 73.448 289.245 73.448C285.853 73.448 282.333 72.296 281.373 67.688C279.581 71.464 275.613 73.768 269.405 73.768ZM272.221 66.6C276.381 66.6 279.325 64.04 279.325 59.368V57.96L272.605 59.496C269.917 60.072 268.445 61.352 268.445 63.336C268.445 65.384 269.661 66.6 272.221 66.6ZM314.599 83.368C303.911 83.368 299.367 79.4 297.703 73.832L308.967 73C309.607 74.984 311.015 76.072 314.599 76.072C318.567 76.072 320.871 74.152 320.871 69.48V66.408C319.271 69.48 315.367 71.464 310.951 71.464C302.567 71.464 296.679 65 296.679 54.696C296.679 44.776 302.503 37.8 310.887 37.8C316.007 37.8 319.271 40.232 321.127 43.816V38.568H331.943V69.288C331.943 78.888 324.711 83.368 314.599 83.368ZM314.535 63.72C318.439 63.72 320.935 60.392 320.935 54.632C320.999 48.936 318.503 45.48 314.535 45.48C310.439 45.48 308.007 49.128 308.007 54.632C308.007 60.136 310.567 63.72 314.535 63.72ZM355.349 73.768C344.469 73.768 337.429 66.664 337.429 55.784C337.429 44.968 344.469 37.8 355.285 37.8C365.973 37.8 372.693 45.032 372.693 56.616V58.664H348.757C348.949 63.464 351.573 65.768 355.541 65.768C358.357 65.768 360.405 64.68 361.237 62.056L372.245 62.696C370.325 69.864 363.925 73.768 355.349 73.768ZM361.621 52.392C361.365 47.848 358.933 45.608 355.285 45.608C351.637 45.608 349.141 48.104 348.757 52.392H361.621ZM397.912 74.024C385.752 74.024 378.712 67.752 378.072 57.896L389.208 57.384C389.912 62.312 392.664 65.064 398.04 65.064C402.328 65.064 404.824 63.528 404.824 60.456C404.824 57.64 403.416 56.04 395.672 54.376C383.64 51.816 378.904 48.552 378.904 40.488C378.904 32.232 385.496 26.536 396.568 26.536C408.28 26.536 414.424 33.064 415.384 42.216L404.312 42.728C403.928 38.312 401.112 35.496 396.44 35.496C392.472 35.496 390.104 37.352 390.104 40.104C390.104 43.24 392.088 44.584 398.744 45.864C411.736 48.296 416.024 52.904 416.024 59.944C416.024 68.648 409.176 74.024 397.912 74.024ZM425.42 82.6V74.664H430.22C432.332 74.664 433.164 74.152 433.804 72.488L434.38 70.952H431.5L419.532 38.568H430.668L437.772 60.584L444.364 38.568H455.5L442.508 75.88C440.844 80.744 438.092 82.6 432.652 82.6H425.42ZM460.654 73V38.568H470.51L470.766 44.136C472.622 39.528 476.334 37.8 480.814 37.8C488.11 37.8 492.59 42.664 492.59 50.856V73H481.582V54.632C481.582 49.384 480.686 46.376 476.974 46.376C473.39 46.376 471.662 49.384 471.662 54.632V73H460.654ZM516.102 73.768C505.222 73.768 498.054 66.664 498.054 55.784C498.054 44.968 505.222 37.8 516.102 37.8C525.638 37.8 532.678 43.048 533.638 51.752L522.31 52.264C521.734 48.104 519.43 45.992 516.102 45.992C511.75 45.992 509.382 49.576 509.382 55.784C509.382 62.056 511.75 65.64 516.102 65.64C519.494 65.64 521.862 63.592 522.31 59.048L533.638 59.432C532.806 68.264 525.894 73.768 516.102 73.768Z" fill="white"/>
  </svg>
  